<?xml version="1.0" encoding="utf-8" standalone="no"?>
<!DOCTYPE svg PUBLIC "-//W3C//DTD SVG 1.1//EN"
  "http://www.w3.org/Graphics/SVG/1.1/DTD/svg11.dtd">
<!-- Created with matplotlib (https://matplotlib.org/) -->
<svg height="720pt" version="1.1" viewBox="0 0 1440 720" width="1440pt" xmlns="http://www.w3.org/2000/svg" xmlns:xlink="http://www.w3.org/1999/xlink">
 <metadata>
  <rdf:RDF xmlns:cc="http://creativecommons.org/ns#" xmlns:dc="http://purl.org/dc/elements/1.1/" xmlns:rdf="http://www.w3.org/1999/02/22-rdf-syntax-ns#">
   <cc:Work>
    <dc:type rdf:resource="http://purl.org/dc/dcmitype/StillImage"/>
    <dc:date>2021-02-23T15:41:57.055100</dc:date>
    <dc:format>image/svg+xml</dc:format>
    <dc:creator>
     <cc:Agent>
      <dc:title>Matplotlib v3.3.3, https://matplotlib.org/</dc:title>
     </cc:Agent>
    </dc:creator>
   </cc:Work>
  </rdf:RDF>
 </metadata>
 <defs>
  <style type="text/css">*{stroke-linecap:butt;stroke-linejoin:round;}</style>
 </defs>
 <g id="figure_1">
  <g id="patch_1">
   <path d="M 0 720 
L 1440 720 
L 1440 0 
L 0 0 
z
" style="fill:#ffffff;"/>
  </g>
  <g id="axes_1">
   <g id="patch_2">
    <path d="M 180 630 
L 1296 630 
L 1296 86.4 
L 180 86.4 
z
" style="fill:#ffffff;"/>
   </g>
   <g id="matplotlib.axis_1">
    <g id="xtick_1">
     <g id="text_1">
      <!-- 2016 -->
      <g style="fill:#262626;" transform="translate(338.441045 644.157812)scale(0.1 -0.1)">
       <defs>
        <path d="M 50.34375 8.453125 
L 50.34375 0 
L 3.03125 0 
Q 2.9375 3.171875 4.046875 6.109375 
Q 5.859375 10.9375 9.828125 15.625 
Q 13.8125 20.3125 21.34375 26.46875 
Q 33.015625 36.03125 37.109375 41.625 
Q 41.21875 47.21875 41.21875 52.203125 
Q 41.21875 57.421875 37.46875 61 
Q 33.734375 64.59375 27.734375 64.59375 
Q 21.390625 64.59375 17.578125 60.78125 
Q 13.765625 56.984375 13.71875 50.25 
L 4.6875 51.171875 
Q 5.609375 61.28125 11.65625 66.578125 
Q 17.71875 71.875 27.9375 71.875 
Q 38.234375 71.875 44.234375 66.15625 
Q 50.25 60.453125 50.25 52 
Q 50.25 47.703125 48.484375 43.546875 
Q 46.734375 39.40625 42.65625 34.8125 
Q 38.578125 30.21875 29.109375 22.21875 
Q 21.1875 15.578125 18.9375 13.203125 
Q 16.703125 10.84375 15.234375 8.453125 
z
" id="ArialMT-50"/>
        <path d="M 4.15625 35.296875 
Q 4.15625 48 6.765625 55.734375 
Q 9.375 63.484375 14.515625 67.671875 
Q 19.671875 71.875 27.484375 71.875 
Q 33.25 71.875 37.59375 69.546875 
Q 41.9375 67.234375 44.765625 62.859375 
Q 47.609375 58.5 49.21875 52.21875 
Q 50.828125 45.953125 50.828125 35.296875 
Q 50.828125 22.703125 48.234375 14.96875 
Q 45.65625 7.234375 40.5 3 
Q 35.359375 -1.21875 27.484375 -1.21875 
Q 17.140625 -1.21875 11.234375 6.203125 
Q 4.15625 15.140625 4.15625 35.296875 
z
M 13.1875 35.296875 
Q 13.1875 17.671875 17.3125 11.828125 
Q 21.4375 6 27.484375 6 
Q 33.546875 6 37.671875 11.859375 
Q 41.796875 17.71875 41.796875 35.296875 
Q 41.796875 52.984375 37.671875 58.78125 
Q 33.546875 64.59375 27.390625 64.59375 
Q 21.34375 64.59375 17.71875 59.46875 
Q 13.1875 52.9375 13.1875 35.296875 
z
" id="ArialMT-48"/>
        <path d="M 37.25 0 
L 28.46875 0 
L 28.46875 56 
Q 25.296875 52.984375 20.140625 49.953125 
Q 14.984375 46.921875 10.890625 45.40625 
L 10.890625 53.90625 
Q 18.265625 57.375 23.78125 62.296875 
Q 29.296875 67.234375 31.59375 71.875 
L 37.25 71.875 
z
" id="ArialMT-49"/>
        <path d="M 49.75 54.046875 
L 41.015625 53.375 
Q 39.84375 58.546875 37.703125 60.890625 
Q 34.125 64.65625 28.90625 64.65625 
Q 24.703125 64.65625 21.53125 62.3125 
Q 17.390625 59.28125 14.984375 53.46875 
Q 12.59375 47.65625 12.5 36.921875 
Q 15.671875 41.75 20.265625 44.09375 
Q 24.859375 46.4375 29.890625 46.4375 
Q 38.671875 46.4375 44.84375 39.96875 
Q 51.03125 33.5 51.03125 23.25 
Q 51.03125 16.5 48.125 10.71875 
Q 45.21875 4.9375 40.140625 1.859375 
Q 35.0625 -1.21875 28.609375 -1.21875 
Q 17.625 -1.21875 10.6875 6.859375 
Q 3.765625 14.9375 3.765625 33.5 
Q 3.765625 54.25 11.421875 63.671875 
Q 18.109375 71.875 29.4375 71.875 
Q 37.890625 71.875 43.28125 67.140625 
Q 48.6875 62.40625 49.75 54.046875 
z
M 13.875 23.1875 
Q 13.875 18.65625 15.796875 14.5 
Q 17.71875 10.359375 21.1875 8.171875 
Q 24.65625 6 28.46875 6 
Q 34.03125 6 38.03125 10.484375 
Q 42.046875 14.984375 42.046875 22.703125 
Q 42.046875 30.125 38.078125 34.390625 
Q 34.125 38.671875 28.125 38.671875 
Q 22.171875 38.671875 18.015625 34.390625 
Q 13.875 30.125 13.875 23.1875 
z
" id="ArialMT-54"/>
       </defs>
       <use xlink:href="#ArialMT-50"/>
       <use x="55.615234" xlink:href="#ArialMT-48"/>
       <use x="111.230469" xlink:href="#ArialMT-49"/>
       <use x="166.845703" xlink:href="#ArialMT-54"/>
      </g>
     </g>
    </g>
    <g id="xtick_2">
     <g id="text_2">
      <!-- 2017 -->
      <g style="fill:#262626;" transform="translate(541.68332 644.157812)scale(0.1 -0.1)">
       <defs>
        <path d="M 4.734375 62.203125 
L 4.734375 70.65625 
L 51.078125 70.65625 
L 51.078125 63.8125 
Q 44.234375 56.546875 37.515625 44.484375 
Q 30.8125 32.421875 27.15625 19.671875 
Q 24.515625 10.6875 23.78125 0 
L 14.75 0 
Q 14.890625 8.453125 18.0625 20.40625 
Q 21.234375 32.375 27.171875 43.484375 
Q 33.109375 54.59375 39.796875 62.203125 
z
" id="ArialMT-55"/>
       </defs>
       <use xlink:href="#ArialMT-50"/>
       <use x="55.615234" xlink:href="#ArialMT-48"/>
       <use x="111.230469" xlink:href="#ArialMT-49"/>
       <use x="166.845703" xlink:href="#ArialMT-55"/>
      </g>
     </g>
    </g>
    <g id="xtick_3">
     <g id="text_3">
      <!-- 2018 -->
      <g style="fill:#262626;" transform="translate(744.370288 644.157812)scale(0.1 -0.1)">
       <defs>
        <path d="M 17.671875 38.8125 
Q 12.203125 40.828125 9.5625 44.53125 
Q 6.9375 48.25 6.9375 53.421875 
Q 6.9375 61.234375 12.546875 66.546875 
Q 18.171875 71.875 27.484375 71.875 
Q 36.859375 71.875 42.578125 66.421875 
Q 48.296875 60.984375 48.296875 53.171875 
Q 48.296875 48.1875 45.671875 44.5 
Q 43.0625 40.828125 37.75 38.8125 
Q 44.34375 36.671875 47.78125 31.875 
Q 51.21875 27.09375 51.21875 20.453125 
Q 51.21875 11.28125 44.71875 5.03125 
Q 38.234375 -1.21875 27.640625 -1.21875 
Q 17.046875 -1.21875 10.546875 5.046875 
Q 4.046875 11.328125 4.046875 20.703125 
Q 4.046875 27.6875 7.59375 32.390625 
Q 11.140625 37.109375 17.671875 38.8125 
z
M 15.921875 53.71875 
Q 15.921875 48.640625 19.1875 45.40625 
Q 22.46875 42.1875 27.6875 42.1875 
Q 32.765625 42.1875 36.015625 45.375 
Q 39.265625 48.578125 39.265625 53.21875 
Q 39.265625 58.0625 35.90625 61.359375 
Q 32.5625 64.65625 27.59375 64.65625 
Q 22.5625 64.65625 19.234375 61.421875 
Q 15.921875 58.203125 15.921875 53.71875 
z
M 13.09375 20.65625 
Q 13.09375 16.890625 14.875 13.375 
Q 16.65625 9.859375 20.171875 7.921875 
Q 23.6875 6 27.734375 6 
Q 34.03125 6 38.125 10.046875 
Q 42.234375 14.109375 42.234375 20.359375 
Q 42.234375 26.703125 38.015625 30.859375 
Q 33.796875 35.015625 27.4375 35.015625 
Q 21.234375 35.015625 17.15625 30.90625 
Q 13.09375 26.8125 13.09375 20.65625 
z
" id="ArialMT-56"/>
       </defs>
       <use xlink:href="#ArialMT-50"/>
       <use x="55.615234" xlink:href="#ArialMT-48"/>
       <use x="111.230469" xlink:href="#ArialMT-49"/>
       <use x="166.845703" xlink:href="#ArialMT-56"/>
      </g>
     </g>
    </g>
    <g id="xtick_4">
     <g id="text_4">
      <!-- 2019 -->
      <g style="fill:#262626;" transform="translate(947.057256 644.157812)scale(0.1 -0.1)">
       <defs>
        <path d="M 5.46875 16.546875 
L 13.921875 17.328125 
Q 14.984375 11.375 18.015625 8.6875 
Q 21.046875 6 25.78125 6 
Q 29.828125 6 32.875 7.859375 
Q 35.9375 9.71875 37.890625 12.8125 
Q 39.84375 15.921875 41.15625 21.1875 
Q 42.484375 26.46875 42.484375 31.9375 
Q 42.484375 32.515625 42.4375 33.6875 
Q 39.796875 29.5 35.234375 26.875 
Q 30.671875 24.265625 25.34375 24.265625 
Q 16.453125 24.265625 10.296875 30.703125 
Q 4.15625 37.15625 4.15625 47.703125 
Q 4.15625 58.59375 10.578125 65.234375 
Q 17 71.875 26.65625 71.875 
Q 33.640625 71.875 39.421875 68.109375 
Q 45.21875 64.359375 48.21875 57.390625 
Q 51.21875 50.4375 51.21875 37.25 
Q 51.21875 23.53125 48.234375 15.40625 
Q 45.265625 7.28125 39.375 3.03125 
Q 33.5 -1.21875 25.59375 -1.21875 
Q 17.1875 -1.21875 11.859375 3.4375 
Q 6.546875 8.109375 5.46875 16.546875 
z
M 41.453125 48.140625 
Q 41.453125 55.71875 37.421875 60.15625 
Q 33.40625 64.59375 27.734375 64.59375 
Q 21.875 64.59375 17.53125 59.8125 
Q 13.1875 55.03125 13.1875 47.40625 
Q 13.1875 40.578125 17.3125 36.296875 
Q 21.4375 32.03125 27.484375 32.03125 
Q 33.59375 32.03125 37.515625 36.296875 
Q 41.453125 40.578125 41.453125 48.140625 
z
" id="ArialMT-57"/>
       </defs>
       <use xlink:href="#ArialMT-50"/>
       <use x="55.615234" xlink:href="#ArialMT-48"/>
       <use x="111.230469" xlink:href="#ArialMT-49"/>
       <use x="166.845703" xlink:href="#ArialMT-57"/>
      </g>
     </g>
    </g>
    <g id="xtick_5">
     <g id="text_5">
      <!-- 2020 -->
      <g style="fill:#262626;" transform="translate(1149.744224 644.157812)scale(0.1 -0.1)">
       <use xlink:href="#ArialMT-50"/>
       <use x="55.615234" xlink:href="#ArialMT-48"/>
       <use x="111.230469" xlink:href="#ArialMT-50"/>
       <use x="166.845703" xlink:href="#ArialMT-48"/>
      </g>
     </g>
    </g>
    <g id="text_6">
     <!-- Time -->
     <g style="fill:#262626;" transform="translate(727.077344 657.303125)scale(0.1 -0.1)">
      <defs>
       <path d="M 25.921875 0 
L 25.921875 63.140625 
L 2.34375 63.140625 
L 2.34375 71.578125 
L 59.078125 71.578125 
L 59.078125 63.140625 
L 35.40625 63.140625 
L 35.40625 0 
z
" id="ArialMT-84"/>
       <path d="M 6.640625 61.46875 
L 6.640625 71.578125 
L 15.4375 71.578125 
L 15.4375 61.46875 
z
M 6.640625 0 
L 6.640625 51.859375 
L 15.4375 51.859375 
L 15.4375 0 
z
" id="ArialMT-105"/>
       <path d="M 6.59375 0 
L 6.59375 51.859375 
L 14.453125 51.859375 
L 14.453125 44.578125 
Q 16.890625 48.390625 20.9375 50.703125 
Q 25 53.03125 30.171875 53.03125 
Q 35.9375 53.03125 39.625 50.640625 
Q 43.3125 48.25 44.828125 43.953125 
Q 50.984375 53.03125 60.84375 53.03125 
Q 68.5625 53.03125 72.703125 48.75 
Q 76.859375 44.484375 76.859375 35.59375 
L 76.859375 0 
L 68.109375 0 
L 68.109375 32.671875 
Q 68.109375 37.9375 67.25 40.25 
Q 66.40625 42.578125 64.15625 43.984375 
Q 61.921875 45.40625 58.890625 45.40625 
Q 53.421875 45.40625 49.796875 41.765625 
Q 46.1875 38.140625 46.1875 30.125 
L 46.1875 0 
L 37.40625 0 
L 37.40625 33.6875 
Q 37.40625 39.546875 35.25 42.46875 
Q 33.109375 45.40625 28.21875 45.40625 
Q 24.515625 45.40625 21.359375 43.453125 
Q 18.21875 41.5 16.796875 37.734375 
Q 15.375 33.984375 15.375 26.90625 
L 15.375 0 
z
" id="ArialMT-109"/>
       <path d="M 42.09375 16.703125 
L 51.171875 15.578125 
Q 49.03125 7.625 43.21875 3.21875 
Q 37.40625 -1.171875 28.375 -1.171875 
Q 17 -1.171875 10.328125 5.828125 
Q 3.65625 12.84375 3.65625 25.484375 
Q 3.65625 38.578125 10.390625 45.796875 
Q 17.140625 53.03125 27.875 53.03125 
Q 38.28125 53.03125 44.875 45.953125 
Q 51.46875 38.875 51.46875 26.03125 
Q 51.46875 25.25 51.421875 23.6875 
L 12.75 23.6875 
Q 13.234375 15.140625 17.578125 10.59375 
Q 21.921875 6.0625 28.421875 6.0625 
Q 33.25 6.0625 36.671875 8.59375 
Q 40.09375 11.140625 42.09375 16.703125 
z
M 13.234375 30.90625 
L 42.1875 30.90625 
Q 41.609375 37.453125 38.875 40.71875 
Q 34.671875 45.796875 27.984375 45.796875 
Q 21.921875 45.796875 17.796875 41.75 
Q 13.671875 37.703125 13.234375 30.90625 
z
" id="ArialMT-101"/>
      </defs>
      <use xlink:href="#ArialMT-84"/>
      <use x="57.333984" xlink:href="#ArialMT-105"/>
      <use x="79.550781" xlink:href="#ArialMT-109"/>
      <use x="162.851562" xlink:href="#ArialMT-101"/>
     </g>
    </g>
   </g>
   <g id="matplotlib.axis_2">
    <g id="ytick_1">
     <g id="text_7">
      <!-- 0.00 -->
      <g style="fill:#262626;" transform="translate(153.539062 620.963671)scale(0.1 -0.1)">
       <defs>
        <path d="M 9.078125 0 
L 9.078125 10.015625 
L 19.09375 10.015625 
L 19.09375 0 
z
" id="ArialMT-46"/>
       </defs>
       <use xlink:href="#ArialMT-48"/>
       <use x="55.615234" xlink:href="#ArialMT-46"/>
       <use x="83.398438" xlink:href="#ArialMT-48"/>
       <use x="139.013672" xlink:href="#ArialMT-48"/>
      </g>
     </g>
    </g>
    <g id="ytick_2">
     <g id="text_8">
      <!-- 0.01 -->
      <g style="fill:#262626;" transform="translate(153.539062 548.355163)scale(0.1 -0.1)">
       <use xlink:href="#ArialMT-48"/>
       <use x="55.615234" xlink:href="#ArialMT-46"/>
       <use x="83.398438" xlink:href="#ArialMT-48"/>
       <use x="139.013672" xlink:href="#ArialMT-49"/>
      </g>
     </g>
    </g>
    <g id="ytick_3">
     <g id="text_9">
      <!-- 0.02 -->
      <g style="fill:#262626;" transform="translate(153.539062 475.746656)scale(0.1 -0.1)">
       <use xlink:href="#ArialMT-48"/>
       <use x="55.615234" xlink:href="#ArialMT-46"/>
       <use x="83.398438" xlink:href="#ArialMT-48"/>
       <use x="139.013672" xlink:href="#ArialMT-50"/>
      </g>
     </g>
    </g>
    <g id="ytick_4">
     <g id="text_10">
      <!-- 0.03 -->
      <g style="fill:#262626;" transform="translate(153.539062 403.138148)scale(0.1 -0.1)">
       <defs>
        <path d="M 4.203125 18.890625 
L 12.984375 20.0625 
Q 14.5 12.59375 18.140625 9.296875 
Q 21.78125 6 27 6 
Q 33.203125 6 37.46875 10.296875 
Q 41.75 14.59375 41.75 20.953125 
Q 41.75 27 37.796875 30.921875 
Q 33.84375 34.859375 27.734375 34.859375 
Q 25.25 34.859375 21.53125 33.890625 
L 22.515625 41.609375 
Q 23.390625 41.5 23.921875 41.5 
Q 29.546875 41.5 34.03125 44.421875 
Q 38.53125 47.359375 38.53125 53.46875 
Q 38.53125 58.296875 35.25 61.46875 
Q 31.984375 64.65625 26.8125 64.65625 
Q 21.6875 64.65625 18.265625 61.421875 
Q 14.84375 58.203125 13.875 51.765625 
L 5.078125 53.328125 
Q 6.6875 62.15625 12.390625 67.015625 
Q 18.109375 71.875 26.609375 71.875 
Q 32.46875 71.875 37.390625 69.359375 
Q 42.328125 66.84375 44.9375 62.5 
Q 47.5625 58.15625 47.5625 53.265625 
Q 47.5625 48.640625 45.0625 44.828125 
Q 42.578125 41.015625 37.703125 38.765625 
Q 44.046875 37.3125 47.5625 32.6875 
Q 51.078125 28.078125 51.078125 21.140625 
Q 51.078125 11.765625 44.234375 5.25 
Q 37.40625 -1.265625 26.953125 -1.265625 
Q 17.53125 -1.265625 11.296875 4.34375 
Q 5.078125 9.96875 4.203125 18.890625 
z
" id="ArialMT-51"/>
       </defs>
       <use xlink:href="#ArialMT-48"/>
       <use x="55.615234" xlink:href="#ArialMT-46"/>
       <use x="83.398438" xlink:href="#ArialMT-48"/>
       <use x="139.013672" xlink:href="#ArialMT-51"/>
      </g>
     </g>
    </g>
    <g id="ytick_5">
     <g id="text_11">
      <!-- 0.04 -->
      <g style="fill:#262626;" transform="translate(153.539062 330.529641)scale(0.1 -0.1)">
       <defs>
        <path d="M 32.328125 0 
L 32.328125 17.140625 
L 1.265625 17.140625 
L 1.265625 25.203125 
L 33.9375 71.578125 
L 41.109375 71.578125 
L 41.109375 25.203125 
L 50.78125 25.203125 
L 50.78125 17.140625 
L 41.109375 17.140625 
L 41.109375 0 
z
M 32.328125 25.203125 
L 32.328125 57.46875 
L 9.90625 25.203125 
z
" id="ArialMT-52"/>
       </defs>
       <use xlink:href="#ArialMT-48"/>
       <use x="55.615234" xlink:href="#ArialMT-46"/>
       <use x="83.398438" xlink:href="#ArialMT-48"/>
       <use x="139.013672" xlink:href="#ArialMT-52"/>
      </g>
     </g>
    </g>
    <g id="ytick_6">
     <g id="text_12">
      <!-- 0.05 -->
      <g style="fill:#262626;" transform="translate(153.539062 257.921134)scale(0.1 -0.1)">
       <defs>
        <path d="M 4.15625 18.75 
L 13.375 19.53125 
Q 14.40625 12.796875 18.140625 9.390625 
Q 21.875 6 27.15625 6 
Q 33.5 6 37.890625 10.78125 
Q 42.28125 15.578125 42.28125 23.484375 
Q 42.28125 31 38.0625 35.34375 
Q 33.84375 39.703125 27 39.703125 
Q 22.75 39.703125 19.328125 37.765625 
Q 15.921875 35.84375 13.96875 32.765625 
L 5.71875 33.84375 
L 12.640625 70.609375 
L 48.25 70.609375 
L 48.25 62.203125 
L 19.671875 62.203125 
L 15.828125 42.96875 
Q 22.265625 47.46875 29.34375 47.46875 
Q 38.71875 47.46875 45.15625 40.96875 
Q 51.609375 34.46875 51.609375 24.265625 
Q 51.609375 14.546875 45.953125 7.46875 
Q 39.0625 -1.21875 27.15625 -1.21875 
Q 17.390625 -1.21875 11.203125 4.25 
Q 5.03125 9.71875 4.15625 18.75 
z
" id="ArialMT-53"/>
       </defs>
       <use xlink:href="#ArialMT-48"/>
       <use x="55.615234" xlink:href="#ArialMT-46"/>
       <use x="83.398438" xlink:href="#ArialMT-48"/>
       <use x="139.013672" xlink:href="#ArialMT-53"/>
      </g>
     </g>
    </g>
    <g id="ytick_7">
     <g id="text_13">
      <!-- 0.06 -->
      <g style="fill:#262626;" transform="translate(153.539062 185.312626)scale(0.1 -0.1)">
       <use xlink:href="#ArialMT-48"/>
       <use x="55.615234" xlink:href="#ArialMT-46"/>
       <use x="83.398438" xlink:href="#ArialMT-48"/>
       <use x="139.013672" xlink:href="#ArialMT-54"/>
      </g>
     </g>
    </g>
    <g id="ytick_8">
     <g id="text_14">
      <!-- 0.07 -->
      <g style="fill:#262626;" transform="translate(153.539062 112.704119)scale(0.1 -0.1)">
       <use xlink:href="#ArialMT-48"/>
       <use x="55.615234" xlink:href="#ArialMT-46"/>
       <use x="83.398438" xlink:href="#ArialMT-48"/>
       <use x="139.013672" xlink:href="#ArialMT-55"/>
      </g>
     </g>
    </g>
    <g id="text_15">
     <!-- Strength -->
     <g style="fill:#262626;" transform="translate(147.434375 377.1)rotate(-90)scale(0.1 -0.1)">
      <defs>
       <path d="M 4.5 23 
L 13.421875 23.78125 
Q 14.0625 18.40625 16.375 14.96875 
Q 18.703125 11.53125 23.578125 9.40625 
Q 28.46875 7.28125 34.578125 7.28125 
Q 39.984375 7.28125 44.140625 8.890625 
Q 48.296875 10.5 50.3125 13.296875 
Q 52.34375 16.109375 52.34375 19.4375 
Q 52.34375 22.796875 50.390625 25.3125 
Q 48.4375 27.828125 43.953125 29.546875 
Q 41.0625 30.671875 31.203125 33.03125 
Q 21.34375 35.40625 17.390625 37.5 
Q 12.25 40.1875 9.734375 44.15625 
Q 7.234375 48.140625 7.234375 53.078125 
Q 7.234375 58.5 10.296875 63.203125 
Q 13.375 67.921875 19.28125 70.359375 
Q 25.203125 72.796875 32.421875 72.796875 
Q 40.375 72.796875 46.453125 70.234375 
Q 52.546875 67.671875 55.8125 62.6875 
Q 59.078125 57.71875 59.328125 51.421875 
L 50.25 50.734375 
Q 49.515625 57.515625 45.28125 60.984375 
Q 41.0625 64.453125 32.8125 64.453125 
Q 24.21875 64.453125 20.28125 61.296875 
Q 16.359375 58.15625 16.359375 53.71875 
Q 16.359375 49.859375 19.140625 47.359375 
Q 21.875 44.875 33.421875 42.265625 
Q 44.96875 39.65625 49.265625 37.703125 
Q 55.515625 34.8125 58.484375 30.390625 
Q 61.46875 25.984375 61.46875 20.21875 
Q 61.46875 14.5 58.203125 9.4375 
Q 54.9375 4.390625 48.796875 1.578125 
Q 42.671875 -1.21875 35.015625 -1.21875 
Q 25.296875 -1.21875 18.71875 1.609375 
Q 12.15625 4.4375 8.421875 10.125 
Q 4.6875 15.828125 4.5 23 
z
" id="ArialMT-83"/>
       <path d="M 25.78125 7.859375 
L 27.046875 0.09375 
Q 23.34375 -0.6875 20.40625 -0.6875 
Q 15.625 -0.6875 12.984375 0.828125 
Q 10.359375 2.34375 9.28125 4.8125 
Q 8.203125 7.28125 8.203125 15.1875 
L 8.203125 45.015625 
L 1.765625 45.015625 
L 1.765625 51.859375 
L 8.203125 51.859375 
L 8.203125 64.703125 
L 16.9375 69.96875 
L 16.9375 51.859375 
L 25.78125 51.859375 
L 25.78125 45.015625 
L 16.9375 45.015625 
L 16.9375 14.703125 
Q 16.9375 10.9375 17.40625 9.859375 
Q 17.875 8.796875 18.921875 8.15625 
Q 19.96875 7.515625 21.921875 7.515625 
Q 23.390625 7.515625 25.78125 7.859375 
z
" id="ArialMT-116"/>
       <path d="M 6.5 0 
L 6.5 51.859375 
L 14.40625 51.859375 
L 14.40625 44 
Q 17.4375 49.515625 20 51.265625 
Q 22.5625 53.03125 25.640625 53.03125 
Q 30.078125 53.03125 34.671875 50.203125 
L 31.640625 42.046875 
Q 28.421875 43.953125 25.203125 43.953125 
Q 22.3125 43.953125 20.015625 42.21875 
Q 17.71875 40.484375 16.75 37.40625 
Q 15.28125 32.71875 15.28125 27.15625 
L 15.28125 0 
z
" id="ArialMT-114"/>
       <path d="M 6.59375 0 
L 6.59375 51.859375 
L 14.5 51.859375 
L 14.5 44.484375 
Q 20.21875 53.03125 31 53.03125 
Q 35.6875 53.03125 39.625 51.34375 
Q 43.5625 49.65625 45.515625 46.921875 
Q 47.46875 44.1875 48.25 40.4375 
Q 48.734375 37.984375 48.734375 31.890625 
L 48.734375 0 
L 39.9375 0 
L 39.9375 31.546875 
Q 39.9375 36.921875 38.90625 39.578125 
Q 37.890625 42.234375 35.28125 43.8125 
Q 32.671875 45.40625 29.15625 45.40625 
Q 23.53125 45.40625 19.453125 41.84375 
Q 15.375 38.28125 15.375 28.328125 
L 15.375 0 
z
" id="ArialMT-110"/>
       <path d="M 4.984375 -4.296875 
L 13.53125 -5.5625 
Q 14.0625 -9.515625 16.5 -11.328125 
Q 19.78125 -13.765625 25.4375 -13.765625 
Q 31.546875 -13.765625 34.859375 -11.328125 
Q 38.1875 -8.890625 39.359375 -4.5 
Q 40.046875 -1.8125 39.984375 6.78125 
Q 34.234375 0 25.640625 0 
Q 14.9375 0 9.078125 7.71875 
Q 3.21875 15.4375 3.21875 26.21875 
Q 3.21875 33.640625 5.90625 39.90625 
Q 8.59375 46.1875 13.6875 49.609375 
Q 18.796875 53.03125 25.6875 53.03125 
Q 34.859375 53.03125 40.828125 45.609375 
L 40.828125 51.859375 
L 48.921875 51.859375 
L 48.921875 7.03125 
Q 48.921875 -5.078125 46.453125 -10.125 
Q 44 -15.1875 38.640625 -18.109375 
Q 33.296875 -21.046875 25.484375 -21.046875 
Q 16.21875 -21.046875 10.5 -16.875 
Q 4.78125 -12.703125 4.984375 -4.296875 
z
M 12.25 26.859375 
Q 12.25 16.65625 16.296875 11.96875 
Q 20.359375 7.28125 26.46875 7.28125 
Q 32.515625 7.28125 36.609375 11.9375 
Q 40.71875 16.609375 40.71875 26.5625 
Q 40.71875 36.078125 36.5 40.90625 
Q 32.28125 45.75 26.3125 45.75 
Q 20.453125 45.75 16.34375 40.984375 
Q 12.25 36.234375 12.25 26.859375 
z
" id="ArialMT-103"/>
       <path d="M 6.59375 0 
L 6.59375 71.578125 
L 15.375 71.578125 
L 15.375 45.90625 
Q 21.53125 53.03125 30.90625 53.03125 
Q 36.671875 53.03125 40.921875 50.75 
Q 45.171875 48.484375 47 44.484375 
Q 48.828125 40.484375 48.828125 32.859375 
L 48.828125 0 
L 40.046875 0 
L 40.046875 32.859375 
Q 40.046875 39.453125 37.1875 42.453125 
Q 34.328125 45.453125 29.109375 45.453125 
Q 25.203125 45.453125 21.75 43.421875 
Q 18.3125 41.40625 16.84375 37.9375 
Q 15.375 34.46875 15.375 28.375 
L 15.375 0 
z
" id="ArialMT-104"/>
      </defs>
      <use xlink:href="#ArialMT-83"/>
      <use x="66.699219" xlink:href="#ArialMT-116"/>
      <use x="94.482422" xlink:href="#ArialMT-114"/>
      <use x="127.783203" xlink:href="#ArialMT-101"/>
      <use x="183.398438" xlink:href="#ArialMT-110"/>
      <use x="239.013672" xlink:href="#ArialMT-103"/>
      <use x="294.628906" xlink:href="#ArialMT-116"/>
      <use x="322.412109" xlink:href="#ArialMT-104"/>
     </g>
    </g>
   </g>
   <g id="line2d_1">
    <path clip-path="url(#pc434d60c96)" d="M 230.727273 496.496157 
L 247.386476 512.151341 
L 264.600985 515.28639 
L 281.815495 501.961598 
L 298.474698 493.36008 
L 315.689207 487.972486 
L 332.34841 506.03571 
L 349.56292 507.934388 
L 366.777429 507.991866 
L 382.881326 520.802148 
L 400.095835 454.488336 
L 416.755038 495.688925 
L 433.969548 510.991617 
L 450.628751 511.262037 
L 467.84326 528.131853 
L 485.05777 492.149043 
L 501.716973 542.5311 
L 518.931482 445.13122 
L 535.590685 494.703845 
L 552.805195 510.300466 
L 570.019704 495.044453 
L 585.568294 425.659945 
L 602.782803 482.240627 
L 619.442006 489.727704 
L 636.656516 467.775314 
L 653.315719 484.474787 
L 670.530228 450.153295 
L 687.744738 405.997855 
L 704.403941 472.644785 
L 721.618451 419.967171 
L 738.277653 398.468972 
L 755.492163 390.914279 
L 772.706673 423.467931 
L 788.255262 443.508164 
L 805.469772 397.927641 
L 822.128974 409.499514 
L 839.343484 433.529517 
L 856.002687 411.878086 
L 873.217197 419.858077 
L 890.431706 465.214521 
L 907.090909 386.422837 
L 924.305419 403.020587 
L 940.964622 449.208173 
L 958.179131 457.845005 
L 975.393641 467.706322 
L 990.94223 493.332951 
L 1008.15674 454.450407 
L 1024.815943 420.588353 
L 1042.030452 450.626008 
L 1058.689655 430.002948 
L 1075.904165 416.614844 
L 1093.118674 497.07627 
L 1109.777877 483.632218 
L 1126.992387 474.720872 
L 1143.65159 504.079681 
L 1160.866099 471.258304 
L 1178.080609 441.803247 
L 1194.184505 457.804044 
L 1211.399015 458.230602 
L 1228.058218 474.467854 
L 1245.272727 420.461447 
" style="fill:none;stroke:#1f77b4;stroke-linecap:round;stroke-opacity:0.9;"/>
   </g>
   <g id="line2d_2">
    <path clip-path="url(#pc434d60c96)" d="M 230.727273 564.638971 
L 247.386476 547.806907 
L 264.600985 577.725359 
L 281.815495 586.96993 
L 298.474698 591.992627 
L 315.689207 586.339544 
L 332.34841 590.772208 
L 349.56292 588.709488 
L 366.777429 575.085656 
L 382.881326 584.01789 
L 400.095835 586.670539 
L 416.755038 584.726757 
L 433.969548 584.962243 
L 450.628751 579.336595 
L 467.84326 572.17098 
L 485.05777 591.485491 
L 501.716973 579.275302 
L 518.931482 578.622079 
L 535.590685 565.209373 
L 552.805195 550.471262 
L 570.019704 565.221439 
L 585.568294 588.561547 
L 602.782803 520.598279 
L 619.442006 588.532593 
L 636.656516 557.550019 
L 653.315719 548.300626 
L 670.530228 517.01467 
L 687.744738 545.9986 
L 704.403941 554.396518 
L 721.618451 521.798847 
L 738.277653 503.023741 
L 755.492163 387.613541 
L 772.706673 469.825713 
L 788.255262 450.22484 
L 805.469772 419.849015 
L 822.128974 512.411677 
L 839.343484 409.605382 
L 856.002687 419.635376 
L 873.217197 469.379278 
L 890.431706 497.46904 
L 907.090909 385.174461 
L 924.305419 407.926125 
L 940.964622 281.02525 
L 958.179131 281.003631 
L 975.393641 425.479777 
L 990.94223 424.22978 
L 1008.15674 458.558462 
L 1024.815943 482.688879 
L 1042.030452 470.750893 
L 1058.689655 485.085031 
L 1075.904165 541.39982 
L 1093.118674 533.645599 
L 1109.777877 523.785223 
L 1126.992387 546.708998 
L 1143.65159 522.220528 
L 1160.866099 521.699954 
L 1178.080609 491.751165 
L 1194.184505 540.035944 
L 1211.399015 483.224928 
L 1228.058218 505.871714 
L 1245.272727 430.768712 
" style="fill:none;stroke:#ff7f0e;stroke-linecap:round;stroke-opacity:0.9;"/>
   </g>
   <g id="line2d_3">
    <path clip-path="url(#pc434d60c96)" d="M 230.727273 321.84672 
L 247.386476 308.261364 
L 264.600985 345.518083 
L 281.815495 403.364788 
L 298.474698 307.969723 
L 315.689207 397.637518 
L 332.34841 395.616067 
L 349.56292 435.881114 
L 366.777429 468.200669 
L 382.881326 473.833892 
L 400.095835 491.111827 
L 416.755038 484.140154 
L 433.969548 517.474247 
L 450.628751 576.593803 
L 467.84326 550.406854 
L 485.05777 530.175621 
L 501.716973 537.943173 
L 518.931482 507.532933 
L 535.590685 538.305908 
L 552.805195 503.226145 
L 570.019704 555.968205 
L 585.568294 564.917315 
L 602.782803 568.770326 
L 619.442006 574.554446 
L 636.656516 580.439555 
L 653.315719 578.002499 
L 670.530228 564.210309 
L 687.744738 591.774458 
L 704.403941 569.656175 
L 721.618451 584.108872 
L 738.277653 549.472966 
L 755.492163 507.318423 
L 772.706673 468.698212 
L 788.255262 542.391021 
L 805.469772 552.319827 
L 822.128974 525.591487 
L 839.343484 559.416804 
L 856.002687 492.107633 
L 873.217197 461.99247 
L 890.431706 482.642077 
L 907.090909 569.75012 
L 924.305419 544.956883 
L 940.964622 523.946585 
L 958.179131 531.365935 
L 975.393641 543.43011 
L 990.94223 561.318546 
L 1008.15674 493.53803 
L 1024.815943 530.665938 
L 1042.030452 549.231546 
L 1058.689655 553.374056 
L 1075.904165 561.931621 
L 1093.118674 508.447218 
L 1109.777877 546.290363 
L 1126.992387 533.279411 
L 1143.65159 553.212336 
L 1160.866099 561.629595 
L 1178.080609 508.472059 
L 1194.184505 587.272049 
L 1211.399015 590.860789 
L 1228.058218 574.072881 
L 1245.272727 579.676289 
" style="fill:none;stroke:#2ca02c;stroke-linecap:round;stroke-opacity:0.9;"/>
   </g>
   <g id="line2d_4">
    <path clip-path="url(#pc434d60c96)" d="M 230.727273 591.646344 
L 247.386476 584.555374 
L 264.600985 583.56333 
L 281.815495 580.836757 
L 298.474698 570.856562 
L 315.689207 568.145954 
L 332.34841 567.343441 
L 349.56292 585.009763 
L 366.777429 591.248337 
L 382.881326 566.802125 
L 400.095835 592.321648 
L 416.755038 574.169009 
L 433.969548 568.357625 
L 450.628751 564.930461 
L 467.84326 563.744128 
L 485.05777 579.106874 
L 501.716973 589.543817 
L 518.931482 566.52225 
L 535.590685 569.669795 
L 552.805195 461.836356 
L 570.019704 337.580224 
L 585.568294 495.985452 
L 602.782803 499.851293 
L 619.442006 423.863345 
L 636.656516 434.402125 
L 653.315719 460.472995 
L 670.530228 440.880238 
L 687.744738 555.640296 
L 704.403941 419.962835 
L 721.618451 527.281346 
L 738.277653 292.18422 
L 755.492163 398.60698 
L 772.706673 489.162069 
L 788.255262 481.382419 
L 805.469772 419.896504 
L 822.128974 474.780051 
L 839.343484 449.103963 
L 856.002687 393.365205 
L 873.217197 381.296003 
L 890.431706 540.839026 
L 907.090909 468.673847 
L 924.305419 497.560901 
L 940.964622 459.060127 
L 958.179131 389.845594 
L 975.393641 515.745075 
L 990.94223 400.729752 
L 1008.15674 484.675036 
L 1024.815943 466.322966 
L 1042.030452 405.555991 
L 1058.689655 479.473923 
L 1075.904165 394.325896 
L 1093.118674 391.020626 
L 1109.777877 511.508819 
L 1126.992387 497.824359 
L 1143.65159 510.388639 
L 1160.866099 533.628314 
L 1178.080609 481.413428 
L 1194.184505 412.986363 
L 1211.399015 300.649493 
L 1228.058218 466.242225 
L 1245.272727 503.35576 
" style="fill:none;stroke:#d62728;stroke-linecap:round;stroke-opacity:0.9;"/>
   </g>
   <g id="line2d_5">
    <path clip-path="url(#pc434d60c96)" d="M 230.727273 528.364845 
L 247.386476 542.209125 
L 264.600985 517.684969 
L 281.815495 525.630113 
L 298.474698 532.305756 
L 315.689207 504.847942 
L 332.34841 435.362722 
L 349.56292 427.643839 
L 366.777429 441.964786 
L 382.881326 398.835188 
L 400.095835 325.562799 
L 416.755038 429.277506 
L 433.969548 449.943476 
L 450.628751 476.801225 
L 467.84326 414.738769 
L 485.05777 330.714315 
L 501.716973 453.9176 
L 518.931482 442.038859 
L 535.590685 471.822027 
L 552.805195 529.170836 
L 570.019704 548.548429 
L 585.568294 522.487362 
L 602.782803 566.628032 
L 619.442006 543.331488 
L 636.656516 560.833733 
L 653.315719 525.545426 
L 670.530228 503.848489 
L 687.744738 511.705441 
L 704.403941 546.584725 
L 721.618451 510.446865 
L 738.277653 505.067793 
L 755.492163 511.52874 
L 772.706673 525.738362 
L 788.255262 536.37041 
L 805.469772 514.740473 
L 822.128974 545.17832 
L 839.343484 545.955174 
L 856.002687 516.989275 
L 873.217197 545.261152 
L 890.431706 527.956803 
L 907.090909 488.21781 
L 924.305419 489.581368 
L 940.964622 538.070118 
L 958.179131 563.733702 
L 975.393641 513.135114 
L 990.94223 539.075962 
L 1008.15674 533.401316 
L 1024.815943 540.318276 
L 1042.030452 474.081713 
L 1058.689655 510.678186 
L 1075.904165 491.867141 
L 1093.118674 523.900204 
L 1109.777877 509.613051 
L 1126.992387 524.820118 
L 1143.65159 485.644616 
L 1160.866099 511.134266 
L 1178.080609 463.393173 
L 1194.184505 401.143517 
L 1211.399015 460.648617 
L 1228.058218 499.510403 
L 1245.272727 522.53276 
" style="fill:none;stroke:#9467bd;stroke-linecap:round;stroke-opacity:0.9;"/>
   </g>
   <g id="line2d_6">
    <path clip-path="url(#pc434d60c96)" d="M 230.727273 519.447195 
L 247.386476 511.880812 
L 264.600985 519.04438 
L 281.815495 562.943799 
L 298.474698 558.313388 
L 315.689207 535.321435 
L 332.34841 528.417556 
L 349.56292 524.745358 
L 366.777429 508.640226 
L 382.881326 507.525735 
L 400.095835 554.701282 
L 416.755038 555.894272 
L 433.969548 520.422447 
L 450.628751 487.773287 
L 467.84326 519.46172 
L 485.05777 519.136798 
L 501.716973 543.922406 
L 518.931482 527.815027 
L 535.590685 514.131519 
L 552.805195 472.012302 
L 570.019704 473.04592 
L 585.568294 558.414036 
L 602.782803 577.597347 
L 619.442006 575.81128 
L 636.656516 494.429651 
L 653.315719 503.161306 
L 670.530228 510.752233 
L 687.744738 395.541452 
L 704.403941 491.450393 
L 721.618451 481.605066 
L 738.277653 461.93398 
L 755.492163 434.269468 
L 772.706673 428.992682 
L 788.255262 483.33453 
L 805.469772 341.458948 
L 822.128974 441.302948 
L 839.343484 414.887818 
L 856.002687 456.408744 
L 873.217197 457.632528 
L 890.431706 446.755965 
L 907.090909 429.683542 
L 924.305419 410.260487 
L 940.964622 367.22485 
L 958.179131 415.207689 
L 975.393641 414.647152 
L 990.94223 465.511215 
L 1008.15674 436.65748 
L 1024.815943 438.880401 
L 1042.030452 432.855644 
L 1058.689655 423.393394 
L 1075.904165 452.455125 
L 1093.118674 498.243705 
L 1109.777877 488.514671 
L 1126.992387 496.577308 
L 1143.65159 478.551016 
L 1160.866099 513.706726 
L 1178.080609 518.887098 
L 1194.184505 466.760077 
L 1211.399015 470.757221 
L 1228.058218 456.415369 
L 1245.272727 482.934418 
" style="fill:none;stroke:#8c564b;stroke-linecap:round;stroke-opacity:0.9;"/>
   </g>
   <g id="line2d_7">
    <path clip-path="url(#pc434d60c96)" d="M 230.727273 515.588647 
L 247.386476 546.17629 
L 264.600985 551.909927 
L 281.815495 565.500518 
L 298.474698 542.706716 
L 315.689207 540.005919 
L 332.34841 535.536115 
L 349.56292 561.905048 
L 366.777429 586.030958 
L 382.881326 563.944491 
L 400.095835 580.983894 
L 416.755038 556.130113 
L 433.969548 502.977752 
L 450.628751 550.588175 
L 467.84326 528.170006 
L 485.05777 571.284838 
L 501.716973 564.912502 
L 518.931482 545.383554 
L 535.590685 492.324337 
L 552.805195 548.770357 
L 570.019704 555.709994 
L 585.568294 490.198092 
L 602.782803 465.299233 
L 619.442006 498.162857 
L 636.656516 508.568251 
L 653.315719 492.739959 
L 670.530228 554.76262 
L 687.744738 510.521889 
L 704.403941 536.150325 
L 721.618451 404.960126 
L 738.277653 543.895288 
L 755.492163 404.844675 
L 772.706673 439.422217 
L 788.255262 461.262389 
L 805.469772 411.734086 
L 822.128974 400.700487 
L 839.343484 461.627712 
L 856.002687 429.941653 
L 873.217197 463.204756 
L 890.431706 423.953174 
L 907.090909 524.461281 
L 924.305419 447.782409 
L 940.964622 328.864419 
L 958.179131 387.366865 
L 975.393641 416.674216 
L 990.94223 456.630435 
L 1008.15674 454.537692 
L 1024.815943 393.857142 
L 1042.030452 383.789235 
L 1058.689655 438.224247 
L 1075.904165 400.37622 
L 1093.118674 358.394484 
L 1109.777877 347.265299 
L 1126.992387 431.180932 
L 1143.65159 376.818971 
L 1160.866099 450.557827 
L 1178.080609 457.037831 
L 1194.184505 528.049207 
L 1211.399015 499.528716 
L 1228.058218 535.911753 
L 1245.272727 548.725455 
" style="fill:none;stroke:#e377c2;stroke-linecap:round;stroke-opacity:0.9;"/>
   </g>
   <g id="line2d_8">
    <path clip-path="url(#pc434d60c96)" d="M 230.727273 111.109091 
L 247.386476 191.929624 
L 264.600985 184.149937 
L 281.815495 281.760721 
L 298.474698 141.281708 
L 315.689207 249.12008 
L 332.34841 357.347935 
L 349.56292 438.102516 
L 366.777429 441.537614 
L 382.881326 498.164432 
L 400.095835 411.799545 
L 416.755038 445.823067 
L 433.969548 454.071551 
L 450.628751 571.150866 
L 467.84326 538.931108 
L 485.05777 540.395073 
L 501.716973 541.106377 
L 518.931482 587.76195 
L 535.590685 582.235745 
L 552.805195 580.818415 
L 570.019704 603.451784 
L 585.568294 599.227635 
L 602.782803 605.290909 
L 619.442006 600.966335 
L 636.656516 593.812513 
L 653.315719 596.285124 
L 670.530228 600.137898 
L 687.744738 603.316049 
L 704.403941 600.101126 
L 721.618451 599.618511 
L 738.277653 583.24152 
L 755.492163 582.400841 
L 772.706673 592.34614 
L 788.255262 600.987682 
L 805.469772 599.113219 
L 822.128974 601.364575 
L 839.343484 594.92375 
L 856.002687 599.450865 
L 873.217197 597.884392 
L 890.431706 597.498778 
L 907.090909 599.938005 
L 924.305419 588.092023 
L 940.964622 592.405609 
L 958.179131 603.912485 
L 975.393641 603.092887 
L 990.94223 597.700996 
L 1008.15674 600.36062 
L 1024.815943 597.583239 
L 1042.030452 599.442655 
L 1058.689655 595.857143 
L 1075.904165 594.157706 
L 1093.118674 599.548731 
L 1109.777877 602.73075 
L 1126.992387 601.890163 
L 1143.65159 602.272002 
L 1160.866099 600.27017 
L 1178.080609 595.168376 
L 1194.184505 601.459465 
L 1211.399015 602.130434 
L 1228.058218 603.668385 
L 1245.272727 597.792673 
" style="fill:none;stroke:#7f7f7f;stroke-linecap:round;stroke-opacity:0.9;"/>
   </g>
   <g id="line2d_9">
    <path clip-path="url(#pc434d60c96)" d="M 230.727273 527.232947 
L 247.386476 545.510236 
L 264.600985 530.026326 
L 281.815495 502.301375 
L 298.474698 515.4671 
L 315.689207 486.578772 
L 332.34841 484.800475 
L 349.56292 448.027251 
L 366.777429 426.107041 
L 382.881326 489.586342 
L 400.095835 433.262546 
L 416.755038 528.496541 
L 433.969548 523.677754 
L 450.628751 527.597485 
L 467.84326 534.718138 
L 485.05777 515.393813 
L 501.716973 514.326568 
L 518.931482 468.134943 
L 535.590685 461.670091 
L 552.805195 465.876104 
L 570.019704 451.497083 
L 585.568294 445.099831 
L 602.782803 416.966098 
L 619.442006 462.475954 
L 636.656516 437.301198 
L 653.315719 448.022822 
L 670.530228 468.099987 
L 687.744738 465.561484 
L 704.403941 489.095046 
L 721.618451 397.392781 
L 738.277653 358.824 
L 755.492163 343.910141 
L 772.706673 433.045872 
L 788.255262 353.078258 
L 805.469772 393.121352 
L 822.128974 382.148541 
L 839.343484 350.189554 
L 856.002687 390.397887 
L 873.217197 349.474482 
L 890.431706 425.818224 
L 907.090909 424.722724 
L 924.305419 369.583736 
L 940.964622 413.601489 
L 958.179131 350.485444 
L 975.393641 441.695093 
L 990.94223 461.109111 
L 1008.15674 415.701875 
L 1024.815943 380.534822 
L 1042.030452 374.56683 
L 1058.689655 394.126925 
L 1075.904165 337.006163 
L 1093.118674 385.974657 
L 1109.777877 447.50068 
L 1126.992387 422.518465 
L 1143.65159 430.273956 
L 1160.866099 435.464862 
L 1178.080609 427.220209 
L 1194.184505 469.58766 
L 1211.399015 462.28495 
L 1228.058218 455.174637 
L 1245.272727 414.395808 
" style="fill:none;stroke:#bcbd22;stroke-linecap:round;stroke-opacity:0.9;"/>
   </g>
   <g id="line2d_10">
    <path clip-path="url(#pc434d60c96)" d="M 230.727273 571.390791 
L 247.386476 569.071279 
L 264.600985 563.646066 
L 281.815495 562.152655 
L 298.474698 560.248505 
L 315.689207 559.6639 
L 332.34841 506.7304 
L 349.56292 528.461885 
L 366.777429 545.835113 
L 382.881326 531.715541 
L 400.095835 548.040634 
L 416.755038 363.19234 
L 433.969548 357.196295 
L 450.628751 281.970234 
L 467.84326 440.656832 
L 485.05777 441.866126 
L 501.716973 404.550885 
L 518.931482 460.867794 
L 535.590685 524.674735 
L 552.805195 498.543866 
L 570.019704 529.450038 
L 585.568294 491.513667 
L 602.782803 496.354072 
L 619.442006 487.747571 
L 636.656516 466.062211 
L 653.315719 464.289524 
L 670.530228 554.50165 
L 687.744738 547.43563 
L 704.403941 489.329745 
L 721.618451 488.389353 
L 738.277653 434.167156 
L 755.492163 421.20406 
L 772.706673 349.399911 
L 788.255262 423.018134 
L 805.469772 432.186598 
L 822.128974 315.081025 
L 839.343484 366.360343 
L 856.002687 364.297647 
L 873.217197 324.384063 
L 890.431706 433.899073 
L 907.090909 537.105415 
L 924.305419 448.836578 
L 940.964622 352.619186 
L 958.179131 396.5687 
L 975.393641 392.875725 
L 990.94223 382.665708 
L 1008.15674 327.446001 
L 1024.815943 380.989993 
L 1042.030452 407.472044 
L 1058.689655 402.498211 
L 1075.904165 496.616066 
L 1093.118674 448.350153 
L 1109.777877 386.626102 
L 1126.992387 422.985621 
L 1143.65159 367.071798 
L 1160.866099 396.528091 
L 1178.080609 427.932406 
L 1194.184505 525.282959 
L 1211.399015 521.572835 
L 1228.058218 523.173747 
L 1245.272727 515.846117 
" style="fill:none;stroke:#17becf;stroke-linecap:round;stroke-opacity:0.9;"/>
   </g>
   <g id="patch_3">
    <path d="M 180 630 
L 180 86.4 
" style="fill:none;stroke:#cccccc;stroke-linecap:square;stroke-linejoin:miter;stroke-width:0.8;"/>
   </g>
   <g id="patch_4">
    <path d="M 1296 630 
L 1296 86.4 
" style="fill:none;stroke:#cccccc;stroke-linecap:square;stroke-linejoin:miter;stroke-width:0.8;"/>
   </g>
   <g id="patch_5">
    <path d="M 180 630 
L 1296 630 
" style="fill:none;stroke:#cccccc;stroke-linecap:square;stroke-linejoin:miter;stroke-width:0.8;"/>
   </g>
   <g id="patch_6">
    <path d="M 180 86.4 
L 1296 86.4 
" style="fill:none;stroke:#cccccc;stroke-linecap:square;stroke-linejoin:miter;stroke-width:0.8;"/>
   </g>
   <g id="text_16">
    <!-- Trump Tweets by Topic -->
    <g style="fill:#ffa500;" transform="translate(180 80.4)scale(0.12 -0.12)">
     <defs>
      <path d="M 40.578125 0 
L 40.578125 7.625 
Q 34.515625 -1.171875 24.125 -1.171875 
Q 19.53125 -1.171875 15.546875 0.578125 
Q 11.578125 2.34375 9.640625 5 
Q 7.71875 7.671875 6.9375 11.53125 
Q 6.390625 14.109375 6.390625 19.734375 
L 6.390625 51.859375 
L 15.1875 51.859375 
L 15.1875 23.09375 
Q 15.1875 16.21875 15.71875 13.8125 
Q 16.546875 10.359375 19.234375 8.375 
Q 21.921875 6.390625 25.875 6.390625 
Q 29.828125 6.390625 33.296875 8.421875 
Q 36.765625 10.453125 38.203125 13.9375 
Q 39.65625 17.4375 39.65625 24.078125 
L 39.65625 51.859375 
L 48.4375 51.859375 
L 48.4375 0 
z
" id="ArialMT-117"/>
      <path d="M 6.59375 -19.875 
L 6.59375 51.859375 
L 14.59375 51.859375 
L 14.59375 45.125 
Q 17.4375 49.078125 21 51.046875 
Q 24.5625 53.03125 29.640625 53.03125 
Q 36.28125 53.03125 41.359375 49.609375 
Q 46.4375 46.1875 49.015625 39.953125 
Q 51.609375 33.734375 51.609375 26.3125 
Q 51.609375 18.359375 48.75 11.984375 
Q 45.90625 5.609375 40.453125 2.21875 
Q 35.015625 -1.171875 29 -1.171875 
Q 24.609375 -1.171875 21.109375 0.6875 
Q 17.625 2.546875 15.375 5.375 
L 15.375 -19.875 
z
M 14.546875 25.640625 
Q 14.546875 15.625 18.59375 10.84375 
Q 22.65625 6.0625 28.421875 6.0625 
Q 34.28125 6.0625 38.453125 11.015625 
Q 42.625 15.96875 42.625 26.375 
Q 42.625 36.28125 38.546875 41.203125 
Q 34.46875 46.140625 28.8125 46.140625 
Q 23.1875 46.140625 18.859375 40.890625 
Q 14.546875 35.640625 14.546875 25.640625 
z
" id="ArialMT-112"/>
      <path id="ArialMT-32"/>
      <path d="M 16.15625 0 
L 0.296875 51.859375 
L 9.375 51.859375 
L 17.625 21.921875 
L 20.703125 10.796875 
Q 20.90625 11.625 23.390625 21.484375 
L 31.640625 51.859375 
L 40.671875 51.859375 
L 48.4375 21.78125 
L 51.03125 11.859375 
L 54 21.875 
L 62.890625 51.859375 
L 71.4375 51.859375 
L 55.21875 0 
L 46.09375 0 
L 37.84375 31.0625 
L 35.84375 39.890625 
L 25.34375 0 
z
" id="ArialMT-119"/>
      <path d="M 3.078125 15.484375 
L 11.765625 16.84375 
Q 12.5 11.625 15.84375 8.84375 
Q 19.1875 6.0625 25.203125 6.0625 
Q 31.25 6.0625 34.171875 8.515625 
Q 37.109375 10.984375 37.109375 14.3125 
Q 37.109375 17.28125 34.515625 19 
Q 32.71875 20.171875 25.53125 21.96875 
Q 15.875 24.421875 12.140625 26.203125 
Q 8.40625 27.984375 6.46875 31.125 
Q 4.546875 34.28125 4.546875 38.09375 
Q 4.546875 41.546875 6.125 44.5 
Q 7.71875 47.46875 10.453125 49.421875 
Q 12.5 50.921875 16.03125 51.96875 
Q 19.578125 53.03125 23.640625 53.03125 
Q 29.734375 53.03125 34.34375 51.265625 
Q 38.96875 49.515625 41.15625 46.5 
Q 43.359375 43.5 44.1875 38.484375 
L 35.59375 37.3125 
Q 35.015625 41.3125 32.203125 43.546875 
Q 29.390625 45.796875 24.265625 45.796875 
Q 18.21875 45.796875 15.625 43.796875 
Q 13.03125 41.796875 13.03125 39.109375 
Q 13.03125 37.40625 14.109375 36.03125 
Q 15.1875 34.625 17.484375 33.6875 
Q 18.796875 33.203125 25.25 31.453125 
Q 34.578125 28.953125 38.25 27.359375 
Q 41.9375 25.78125 44.03125 22.75 
Q 46.140625 19.734375 46.140625 15.234375 
Q 46.140625 10.84375 43.578125 6.953125 
Q 41.015625 3.078125 36.171875 0.953125 
Q 31.34375 -1.171875 25.25 -1.171875 
Q 15.140625 -1.171875 9.84375 3.03125 
Q 4.546875 7.234375 3.078125 15.484375 
z
" id="ArialMT-115"/>
      <path d="M 14.703125 0 
L 6.546875 0 
L 6.546875 71.578125 
L 15.328125 71.578125 
L 15.328125 46.046875 
Q 20.90625 53.03125 29.546875 53.03125 
Q 34.328125 53.03125 38.59375 51.09375 
Q 42.875 49.171875 45.625 45.671875 
Q 48.390625 42.1875 49.953125 37.25 
Q 51.515625 32.328125 51.515625 26.703125 
Q 51.515625 13.375 44.921875 6.09375 
Q 38.328125 -1.171875 29.109375 -1.171875 
Q 19.921875 -1.171875 14.703125 6.5 
z
M 14.59375 26.3125 
Q 14.59375 17 17.140625 12.84375 
Q 21.296875 6.0625 28.375 6.0625 
Q 34.125 6.0625 38.328125 11.0625 
Q 42.53125 16.0625 42.53125 25.984375 
Q 42.53125 36.140625 38.5 40.96875 
Q 34.46875 45.796875 28.765625 45.796875 
Q 23 45.796875 18.796875 40.796875 
Q 14.59375 35.796875 14.59375 26.3125 
z
" id="ArialMT-98"/>
      <path d="M 6.203125 -19.96875 
L 5.21875 -11.71875 
Q 8.109375 -12.5 10.25 -12.5 
Q 13.1875 -12.5 14.9375 -11.515625 
Q 16.703125 -10.546875 17.828125 -8.796875 
Q 18.65625 -7.46875 20.515625 -2.25 
Q 20.75 -1.515625 21.296875 -0.09375 
L 1.609375 51.859375 
L 11.078125 51.859375 
L 21.875 21.828125 
Q 23.96875 16.109375 25.640625 9.8125 
Q 27.15625 15.875 29.25 21.625 
L 40.328125 51.859375 
L 49.125 51.859375 
L 29.390625 -0.875 
Q 26.21875 -9.421875 24.46875 -12.640625 
Q 22.125 -17 19.09375 -19.015625 
Q 16.0625 -21.046875 11.859375 -21.046875 
Q 9.328125 -21.046875 6.203125 -19.96875 
z
" id="ArialMT-121"/>
      <path d="M 3.328125 25.921875 
Q 3.328125 40.328125 11.328125 47.265625 
Q 18.015625 53.03125 27.640625 53.03125 
Q 38.328125 53.03125 45.109375 46.015625 
Q 51.90625 39.015625 51.90625 26.65625 
Q 51.90625 16.65625 48.90625 10.90625 
Q 45.90625 5.171875 40.15625 2 
Q 34.421875 -1.171875 27.640625 -1.171875 
Q 16.75 -1.171875 10.03125 5.8125 
Q 3.328125 12.796875 3.328125 25.921875 
z
M 12.359375 25.921875 
Q 12.359375 15.96875 16.703125 11.015625 
Q 21.046875 6.0625 27.640625 6.0625 
Q 34.1875 6.0625 38.53125 11.03125 
Q 42.875 16.015625 42.875 26.21875 
Q 42.875 35.84375 38.5 40.796875 
Q 34.125 45.75 27.640625 45.75 
Q 21.046875 45.75 16.703125 40.8125 
Q 12.359375 35.890625 12.359375 25.921875 
z
" id="ArialMT-111"/>
      <path d="M 40.4375 19 
L 49.078125 17.875 
Q 47.65625 8.9375 41.8125 3.875 
Q 35.984375 -1.171875 27.484375 -1.171875 
Q 16.84375 -1.171875 10.375 5.78125 
Q 3.90625 12.75 3.90625 25.734375 
Q 3.90625 34.125 6.6875 40.421875 
Q 9.46875 46.734375 15.15625 49.875 
Q 20.84375 53.03125 27.546875 53.03125 
Q 35.984375 53.03125 41.359375 48.75 
Q 46.734375 44.484375 48.25 36.625 
L 39.703125 35.296875 
Q 38.484375 40.53125 35.375 43.15625 
Q 32.28125 45.796875 27.875 45.796875 
Q 21.234375 45.796875 17.078125 41.03125 
Q 12.9375 36.28125 12.9375 25.984375 
Q 12.9375 15.53125 16.9375 10.796875 
Q 20.953125 6.0625 27.390625 6.0625 
Q 32.5625 6.0625 36.03125 9.234375 
Q 39.5 12.40625 40.4375 19 
z
" id="ArialMT-99"/>
     </defs>
     <use xlink:href="#ArialMT-84"/>
     <use x="57.333984" xlink:href="#ArialMT-114"/>
     <use x="90.634766" xlink:href="#ArialMT-117"/>
     <use x="146.25" xlink:href="#ArialMT-109"/>
     <use x="229.550781" xlink:href="#ArialMT-112"/>
     <use x="285.166016" xlink:href="#ArialMT-32"/>
     <use x="311.199219" xlink:href="#ArialMT-84"/>
     <use x="366.783203" xlink:href="#ArialMT-119"/>
     <use x="439" xlink:href="#ArialMT-101"/>
     <use x="494.615234" xlink:href="#ArialMT-101"/>
     <use x="550.230469" xlink:href="#ArialMT-116"/>
     <use x="578.013672" xlink:href="#ArialMT-115"/>
     <use x="628.013672" xlink:href="#ArialMT-32"/>
     <use x="655.796875" xlink:href="#ArialMT-98"/>
     <use x="711.412109" xlink:href="#ArialMT-121"/>
     <use x="761.412109" xlink:href="#ArialMT-32"/>
     <use x="787.445312" xlink:href="#ArialMT-84"/>
     <use x="837.404297" xlink:href="#ArialMT-111"/>
     <use x="893.019531" xlink:href="#ArialMT-112"/>
     <use x="948.634766" xlink:href="#ArialMT-105"/>
     <use x="970.851562" xlink:href="#ArialMT-99"/>
    </g>
   </g>
   <g id="legend_1">
    <g id="patch_7">
     <path d="M 187 165.721875 
L 462.08125 165.721875 
Q 464.08125 165.721875 464.08125 163.721875 
L 464.08125 93.4 
Q 464.08125 91.4 462.08125 91.4 
L 187 91.4 
Q 185 91.4 185 93.4 
L 185 163.721875 
Q 185 165.721875 187 165.721875 
z
" style="fill:#ffffff;opacity:0.8;stroke:#cccccc;stroke-linejoin:miter;"/>
    </g>
    <g id="line2d_11">
     <path d="M 189 99.179688 
L 209 99.179688 
" style="fill:none;stroke:#1f77b4;stroke-linecap:round;stroke-opacity:0.9;"/>
    </g>
    <g id="line2d_12"/>
    <g id="text_17">
     <!-- Patriotism_1 -->
     <g style="fill:#262626;" transform="translate(217 102.679688)scale(0.1 -0.1)">
      <defs>
       <path d="M 7.71875 0 
L 7.71875 71.578125 
L 34.71875 71.578125 
Q 41.84375 71.578125 45.609375 70.90625 
Q 50.875 70.015625 54.4375 67.546875 
Q 58.015625 65.09375 60.1875 60.640625 
Q 62.359375 56.203125 62.359375 50.875 
Q 62.359375 41.75 56.546875 35.421875 
Q 50.734375 29.109375 35.546875 29.109375 
L 17.1875 29.109375 
L 17.1875 0 
z
M 17.1875 37.546875 
L 35.6875 37.546875 
Q 44.875 37.546875 48.734375 40.96875 
Q 52.59375 44.390625 52.59375 50.59375 
Q 52.59375 55.078125 50.3125 58.265625 
Q 48.046875 61.46875 44.34375 62.5 
Q 41.9375 63.140625 35.5 63.140625 
L 17.1875 63.140625 
z
" id="ArialMT-80"/>
       <path d="M 40.4375 6.390625 
Q 35.546875 2.25 31.03125 0.53125 
Q 26.515625 -1.171875 21.34375 -1.171875 
Q 12.796875 -1.171875 8.203125 3 
Q 3.609375 7.171875 3.609375 13.671875 
Q 3.609375 17.484375 5.34375 20.625 
Q 7.078125 23.78125 9.890625 25.6875 
Q 12.703125 27.59375 16.21875 28.5625 
Q 18.796875 29.25 24.03125 29.890625 
Q 34.671875 31.15625 39.703125 32.90625 
Q 39.75 34.71875 39.75 35.203125 
Q 39.75 40.578125 37.25 42.78125 
Q 33.890625 45.75 27.25 45.75 
Q 21.046875 45.75 18.09375 43.578125 
Q 15.140625 41.40625 13.71875 35.890625 
L 5.125 37.0625 
Q 6.296875 42.578125 8.984375 45.96875 
Q 11.671875 49.359375 16.75 51.1875 
Q 21.828125 53.03125 28.515625 53.03125 
Q 35.15625 53.03125 39.296875 51.46875 
Q 43.453125 49.90625 45.40625 47.53125 
Q 47.359375 45.171875 48.140625 41.546875 
Q 48.578125 39.3125 48.578125 33.453125 
L 48.578125 21.734375 
Q 48.578125 9.46875 49.140625 6.21875 
Q 49.703125 2.984375 51.375 0 
L 42.1875 0 
Q 40.828125 2.734375 40.4375 6.390625 
z
M 39.703125 26.03125 
Q 34.90625 24.078125 25.34375 22.703125 
Q 19.921875 21.921875 17.671875 20.9375 
Q 15.4375 19.96875 14.203125 18.09375 
Q 12.984375 16.21875 12.984375 13.921875 
Q 12.984375 10.40625 15.640625 8.0625 
Q 18.3125 5.71875 23.4375 5.71875 
Q 28.515625 5.71875 32.46875 7.9375 
Q 36.421875 10.15625 38.28125 14.015625 
Q 39.703125 17 39.703125 22.796875 
z
" id="ArialMT-97"/>
       <path d="M -1.515625 -19.875 
L -1.515625 -13.53125 
L 56.734375 -13.53125 
L 56.734375 -19.875 
z
" id="ArialMT-95"/>
      </defs>
      <use xlink:href="#ArialMT-80"/>
      <use x="66.699219" xlink:href="#ArialMT-97"/>
      <use x="122.314453" xlink:href="#ArialMT-116"/>
      <use x="150.097656" xlink:href="#ArialMT-114"/>
      <use x="183.398438" xlink:href="#ArialMT-105"/>
      <use x="205.615234" xlink:href="#ArialMT-111"/>
      <use x="261.230469" xlink:href="#ArialMT-116"/>
      <use x="289.013672" xlink:href="#ArialMT-105"/>
      <use x="311.230469" xlink:href="#ArialMT-115"/>
      <use x="361.230469" xlink:href="#ArialMT-109"/>
      <use x="444.53125" xlink:href="#ArialMT-95"/>
      <use x="500.146484" xlink:href="#ArialMT-49"/>
     </g>
    </g>
    <g id="line2d_13">
     <path d="M 189 113.446875 
L 209 113.446875 
" style="fill:none;stroke:#ff7f0e;stroke-linecap:round;stroke-opacity:0.9;"/>
    </g>
    <g id="line2d_14"/>
    <g id="text_18">
     <!-- Crime_Security -->
     <g style="fill:#262626;" transform="translate(217 116.946875)scale(0.1 -0.1)">
      <defs>
       <path d="M 58.796875 25.09375 
L 68.265625 22.703125 
Q 65.28125 11.03125 57.546875 4.90625 
Q 49.8125 -1.21875 38.625 -1.21875 
Q 27.046875 -1.21875 19.796875 3.484375 
Q 12.546875 8.203125 8.765625 17.140625 
Q 4.984375 26.078125 4.984375 36.328125 
Q 4.984375 47.515625 9.25 55.828125 
Q 13.53125 64.15625 21.40625 68.46875 
Q 29.296875 72.796875 38.765625 72.796875 
Q 49.515625 72.796875 56.828125 67.328125 
Q 64.15625 61.859375 67.046875 51.953125 
L 57.71875 49.75 
Q 55.21875 57.5625 50.484375 61.125 
Q 45.75 64.703125 38.578125 64.703125 
Q 30.328125 64.703125 24.78125 60.734375 
Q 19.234375 56.78125 16.984375 50.109375 
Q 14.75 43.453125 14.75 36.375 
Q 14.75 27.25 17.40625 20.4375 
Q 20.0625 13.625 25.671875 10.25 
Q 31.296875 6.890625 37.84375 6.890625 
Q 45.796875 6.890625 51.3125 11.46875 
Q 56.84375 16.0625 58.796875 25.09375 
z
" id="ArialMT-67"/>
      </defs>
      <use xlink:href="#ArialMT-67"/>
      <use x="72.216797" xlink:href="#ArialMT-114"/>
      <use x="105.517578" xlink:href="#ArialMT-105"/>
      <use x="127.734375" xlink:href="#ArialMT-109"/>
      <use x="211.035156" xlink:href="#ArialMT-101"/>
      <use x="266.650391" xlink:href="#ArialMT-95"/>
      <use x="322.265625" xlink:href="#ArialMT-83"/>
      <use x="388.964844" xlink:href="#ArialMT-101"/>
      <use x="444.580078" xlink:href="#ArialMT-99"/>
      <use x="494.580078" xlink:href="#ArialMT-117"/>
      <use x="550.195312" xlink:href="#ArialMT-114"/>
      <use x="583.496094" xlink:href="#ArialMT-105"/>
      <use x="605.712891" xlink:href="#ArialMT-116"/>
      <use x="633.496094" xlink:href="#ArialMT-121"/>
     </g>
    </g>
    <g id="line2d_15">
     <path d="M 189 127.709375 
L 209 127.709375 
" style="fill:none;stroke:#2ca02c;stroke-linecap:round;stroke-opacity:0.9;"/>
    </g>
    <g id="line2d_16"/>
    <g id="text_19">
     <!-- GOP -->
     <g style="fill:#262626;" transform="translate(217 131.209375)scale(0.1 -0.1)">
      <defs>
       <path d="M 41.21875 28.078125 
L 41.21875 36.46875 
L 71.53125 36.53125 
L 71.53125 9.96875 
Q 64.546875 4.390625 57.125 1.578125 
Q 49.703125 -1.21875 41.890625 -1.21875 
Q 31.34375 -1.21875 22.71875 3.296875 
Q 14.109375 7.8125 9.71875 16.359375 
Q 5.328125 24.90625 5.328125 35.453125 
Q 5.328125 45.90625 9.6875 54.953125 
Q 14.0625 64.015625 22.265625 68.40625 
Q 30.46875 72.796875 41.15625 72.796875 
Q 48.921875 72.796875 55.1875 70.28125 
Q 61.46875 67.78125 65.03125 63.28125 
Q 68.609375 58.796875 70.453125 51.5625 
L 61.921875 49.21875 
Q 60.296875 54.6875 57.90625 57.8125 
Q 55.515625 60.9375 51.0625 62.8125 
Q 46.625 64.703125 41.21875 64.703125 
Q 34.71875 64.703125 29.984375 62.71875 
Q 25.25 60.75 22.34375 57.515625 
Q 19.4375 54.296875 17.828125 50.4375 
Q 15.09375 43.796875 15.09375 36.03125 
Q 15.09375 26.46875 18.390625 20.015625 
Q 21.6875 13.578125 27.984375 10.453125 
Q 34.28125 7.328125 41.359375 7.328125 
Q 47.515625 7.328125 53.375 9.6875 
Q 59.234375 12.0625 62.25 14.75 
L 62.25 28.078125 
z
" id="ArialMT-71"/>
       <path d="M 4.828125 34.859375 
Q 4.828125 52.6875 14.390625 62.765625 
Q 23.96875 72.859375 39.109375 72.859375 
Q 49.03125 72.859375 56.984375 68.109375 
Q 64.9375 63.375 69.109375 54.90625 
Q 73.296875 46.4375 73.296875 35.6875 
Q 73.296875 24.8125 68.890625 16.21875 
Q 64.5 7.625 56.4375 3.203125 
Q 48.390625 -1.21875 39.0625 -1.21875 
Q 28.953125 -1.21875 20.984375 3.65625 
Q 13.03125 8.546875 8.921875 16.984375 
Q 4.828125 25.4375 4.828125 34.859375 
z
M 14.59375 34.71875 
Q 14.59375 21.78125 21.546875 14.328125 
Q 28.515625 6.890625 39.015625 6.890625 
Q 49.703125 6.890625 56.609375 14.40625 
Q 63.53125 21.921875 63.53125 35.75 
Q 63.53125 44.484375 60.578125 51 
Q 57.625 57.515625 51.921875 61.109375 
Q 46.234375 64.703125 39.15625 64.703125 
Q 29.109375 64.703125 21.84375 57.78125 
Q 14.59375 50.875 14.59375 34.71875 
z
" id="ArialMT-79"/>
      </defs>
      <use xlink:href="#ArialMT-71"/>
      <use x="77.783203" xlink:href="#ArialMT-79"/>
      <use x="155.566406" xlink:href="#ArialMT-80"/>
     </g>
    </g>
    <g id="line2d_17">
     <path d="M 189 141.854687 
L 209 141.854687 
" style="fill:none;stroke:#d62728;stroke-linecap:round;stroke-opacity:0.9;"/>
    </g>
    <g id="line2d_18"/>
    <g id="text_20">
     <!-- Fake_News -->
     <g style="fill:#262626;" transform="translate(217 145.354687)scale(0.1 -0.1)">
      <defs>
       <path d="M 8.203125 0 
L 8.203125 71.578125 
L 56.5 71.578125 
L 56.5 63.140625 
L 17.671875 63.140625 
L 17.671875 40.96875 
L 51.265625 40.96875 
L 51.265625 32.515625 
L 17.671875 32.515625 
L 17.671875 0 
z
" id="ArialMT-70"/>
       <path d="M 6.640625 0 
L 6.640625 71.578125 
L 15.4375 71.578125 
L 15.4375 30.765625 
L 36.234375 51.859375 
L 47.609375 51.859375 
L 27.78125 32.625 
L 49.609375 0 
L 38.765625 0 
L 21.625 26.515625 
L 15.4375 20.5625 
L 15.4375 0 
z
" id="ArialMT-107"/>
       <path d="M 7.625 0 
L 7.625 71.578125 
L 17.328125 71.578125 
L 54.9375 15.375 
L 54.9375 71.578125 
L 64.015625 71.578125 
L 64.015625 0 
L 54.296875 0 
L 16.703125 56.25 
L 16.703125 0 
z
" id="ArialMT-78"/>
      </defs>
      <use xlink:href="#ArialMT-70"/>
      <use x="61.083984" xlink:href="#ArialMT-97"/>
      <use x="116.699219" xlink:href="#ArialMT-107"/>
      <use x="166.699219" xlink:href="#ArialMT-101"/>
      <use x="222.314453" xlink:href="#ArialMT-95"/>
      <use x="277.929688" xlink:href="#ArialMT-78"/>
      <use x="350.146484" xlink:href="#ArialMT-101"/>
      <use x="405.761719" xlink:href="#ArialMT-119"/>
      <use x="477.978516" xlink:href="#ArialMT-115"/>
     </g>
    </g>
    <g id="line2d_19">
     <path d="M 189 156 
L 209 156 
" style="fill:none;stroke:#9467bd;stroke-linecap:round;stroke-opacity:0.9;"/>
    </g>
    <g id="line2d_20"/>
    <g id="text_21">
     <!-- Election -->
     <g style="fill:#262626;" transform="translate(217 159.5)scale(0.1 -0.1)">
      <defs>
       <path d="M 7.90625 0 
L 7.90625 71.578125 
L 59.671875 71.578125 
L 59.671875 63.140625 
L 17.390625 63.140625 
L 17.390625 41.21875 
L 56.984375 41.21875 
L 56.984375 32.8125 
L 17.390625 32.8125 
L 17.390625 8.453125 
L 61.328125 8.453125 
L 61.328125 0 
z
" id="ArialMT-69"/>
       <path d="M 6.390625 0 
L 6.390625 71.578125 
L 15.1875 71.578125 
L 15.1875 0 
z
" id="ArialMT-108"/>
      </defs>
      <use xlink:href="#ArialMT-69"/>
      <use x="66.699219" xlink:href="#ArialMT-108"/>
      <use x="88.916016" xlink:href="#ArialMT-101"/>
      <use x="144.53125" xlink:href="#ArialMT-99"/>
      <use x="194.53125" xlink:href="#ArialMT-116"/>
      <use x="222.314453" xlink:href="#ArialMT-105"/>
      <use x="244.53125" xlink:href="#ArialMT-111"/>
      <use x="300.146484" xlink:href="#ArialMT-110"/>
     </g>
    </g>
    <g id="line2d_21">
     <path d="M 305.346875 99.179688 
L 325.346875 99.179688 
" style="fill:none;stroke:#8c564b;stroke-linecap:round;stroke-opacity:0.9;"/>
    </g>
    <g id="line2d_22"/>
    <g id="text_22">
     <!-- Self_Congratulatory_unclear -->
     <g style="fill:#262626;" transform="translate(333.346875 102.679688)scale(0.1 -0.1)">
      <defs>
       <path d="M 8.6875 0 
L 8.6875 45.015625 
L 0.921875 45.015625 
L 0.921875 51.859375 
L 8.6875 51.859375 
L 8.6875 57.375 
Q 8.6875 62.59375 9.625 65.140625 
Q 10.890625 68.5625 14.078125 70.671875 
Q 17.28125 72.796875 23.046875 72.796875 
Q 26.765625 72.796875 31.25 71.921875 
L 29.9375 64.265625 
Q 27.203125 64.75 24.75 64.75 
Q 20.75 64.75 19.09375 63.03125 
Q 17.4375 61.328125 17.4375 56.640625 
L 17.4375 51.859375 
L 27.546875 51.859375 
L 27.546875 45.015625 
L 17.4375 45.015625 
L 17.4375 0 
z
" id="ArialMT-102"/>
      </defs>
      <use xlink:href="#ArialMT-83"/>
      <use x="66.699219" xlink:href="#ArialMT-101"/>
      <use x="122.314453" xlink:href="#ArialMT-108"/>
      <use x="144.53125" xlink:href="#ArialMT-102"/>
      <use x="172.314453" xlink:href="#ArialMT-95"/>
      <use x="227.929688" xlink:href="#ArialMT-67"/>
      <use x="300.146484" xlink:href="#ArialMT-111"/>
      <use x="355.761719" xlink:href="#ArialMT-110"/>
      <use x="411.376953" xlink:href="#ArialMT-103"/>
      <use x="466.992188" xlink:href="#ArialMT-114"/>
      <use x="500.292969" xlink:href="#ArialMT-97"/>
      <use x="555.908203" xlink:href="#ArialMT-116"/>
      <use x="583.691406" xlink:href="#ArialMT-117"/>
      <use x="639.306641" xlink:href="#ArialMT-108"/>
      <use x="661.523438" xlink:href="#ArialMT-97"/>
      <use x="717.138672" xlink:href="#ArialMT-116"/>
      <use x="744.921875" xlink:href="#ArialMT-111"/>
      <use x="800.537109" xlink:href="#ArialMT-114"/>
      <use x="833.837891" xlink:href="#ArialMT-121"/>
      <use x="883.837891" xlink:href="#ArialMT-95"/>
      <use x="939.453125" xlink:href="#ArialMT-117"/>
      <use x="995.068359" xlink:href="#ArialMT-110"/>
      <use x="1050.683594" xlink:href="#ArialMT-99"/>
      <use x="1100.683594" xlink:href="#ArialMT-108"/>
      <use x="1122.900391" xlink:href="#ArialMT-101"/>
      <use x="1178.515625" xlink:href="#ArialMT-97"/>
      <use x="1234.130859" xlink:href="#ArialMT-114"/>
     </g>
    </g>
    <g id="line2d_23">
     <path d="M 305.346875 113.442188 
L 325.346875 113.442188 
" style="fill:none;stroke:#e377c2;stroke-linecap:round;stroke-opacity:0.9;"/>
    </g>
    <g id="line2d_24"/>
    <g id="text_23">
     <!-- Fopo -->
     <g style="fill:#262626;" transform="translate(333.346875 116.942188)scale(0.1 -0.1)">
      <use xlink:href="#ArialMT-70"/>
      <use x="61.083984" xlink:href="#ArialMT-111"/>
      <use x="116.699219" xlink:href="#ArialMT-112"/>
      <use x="172.314453" xlink:href="#ArialMT-111"/>
     </g>
    </g>
    <g id="line2d_25">
     <path d="M 305.346875 127.5875 
L 325.346875 127.5875 
" style="fill:none;stroke:#7f7f7f;stroke-linecap:round;stroke-opacity:0.9;"/>
    </g>
    <g id="line2d_26"/>
    <g id="text_24">
     <!-- Unclear -->
     <g style="fill:#262626;" transform="translate(333.346875 131.0875)scale(0.1 -0.1)">
      <defs>
       <path d="M 54.6875 71.578125 
L 64.15625 71.578125 
L 64.15625 30.21875 
Q 64.15625 19.4375 61.71875 13.078125 
Q 59.28125 6.734375 52.90625 2.75 
Q 46.53125 -1.21875 36.1875 -1.21875 
Q 26.125 -1.21875 19.71875 2.25 
Q 13.328125 5.71875 10.59375 12.28125 
Q 7.859375 18.84375 7.859375 30.21875 
L 7.859375 71.578125 
L 17.328125 71.578125 
L 17.328125 30.28125 
Q 17.328125 20.953125 19.0625 16.53125 
Q 20.796875 12.109375 25.015625 9.71875 
Q 29.25 7.328125 35.359375 7.328125 
Q 45.796875 7.328125 50.234375 12.0625 
Q 54.6875 16.796875 54.6875 30.28125 
z
" id="ArialMT-85"/>
      </defs>
      <use xlink:href="#ArialMT-85"/>
      <use x="72.216797" xlink:href="#ArialMT-110"/>
      <use x="127.832031" xlink:href="#ArialMT-99"/>
      <use x="177.832031" xlink:href="#ArialMT-108"/>
      <use x="200.048828" xlink:href="#ArialMT-101"/>
      <use x="255.664062" xlink:href="#ArialMT-97"/>
      <use x="311.279297" xlink:href="#ArialMT-114"/>
     </g>
    </g>
    <g id="line2d_27">
     <path d="M 305.346875 141.732813 
L 325.346875 141.732813 
" style="fill:none;stroke:#bcbd22;stroke-linecap:round;stroke-opacity:0.9;"/>
    </g>
    <g id="line2d_28"/>
    <g id="text_25">
     <!-- Economy -->
     <g style="fill:#262626;" transform="translate(333.346875 145.232813)scale(0.1 -0.1)">
      <use xlink:href="#ArialMT-69"/>
      <use x="66.699219" xlink:href="#ArialMT-99"/>
      <use x="116.699219" xlink:href="#ArialMT-111"/>
      <use x="172.314453" xlink:href="#ArialMT-110"/>
      <use x="227.929688" xlink:href="#ArialMT-111"/>
      <use x="283.544922" xlink:href="#ArialMT-109"/>
      <use x="366.845703" xlink:href="#ArialMT-121"/>
     </g>
    </g>
    <g id="line2d_29">
     <path d="M 305.346875 156.117188 
L 325.346875 156.117188 
" style="fill:none;stroke:#17becf;stroke-linecap:round;stroke-opacity:0.9;"/>
    </g>
    <g id="line2d_30"/>
    <g id="text_26">
     <!-- Democrats_Conspiracy -->
     <g style="fill:#262626;" transform="translate(333.346875 159.617188)scale(0.1 -0.1)">
      <defs>
       <path d="M 7.71875 0 
L 7.71875 71.578125 
L 32.375 71.578125 
Q 40.71875 71.578125 45.125 70.5625 
Q 51.265625 69.140625 55.609375 65.4375 
Q 61.28125 60.640625 64.078125 53.1875 
Q 66.890625 45.75 66.890625 36.1875 
Q 66.890625 28.03125 64.984375 21.734375 
Q 63.09375 15.4375 60.109375 11.296875 
Q 57.125 7.171875 53.578125 4.796875 
Q 50.046875 2.4375 45.046875 1.21875 
Q 40.046875 0 33.546875 0 
z
M 17.1875 8.453125 
L 32.46875 8.453125 
Q 39.546875 8.453125 43.578125 9.765625 
Q 47.609375 11.078125 50 13.484375 
Q 53.375 16.84375 55.25 22.53125 
Q 57.125 28.21875 57.125 36.328125 
Q 57.125 47.5625 53.4375 53.59375 
Q 49.75 59.625 44.484375 61.671875 
Q 40.671875 63.140625 32.234375 63.140625 
L 17.1875 63.140625 
z
" id="ArialMT-68"/>
      </defs>
      <use xlink:href="#ArialMT-68"/>
      <use x="72.216797" xlink:href="#ArialMT-101"/>
      <use x="127.832031" xlink:href="#ArialMT-109"/>
      <use x="211.132812" xlink:href="#ArialMT-111"/>
      <use x="266.748047" xlink:href="#ArialMT-99"/>
      <use x="316.748047" xlink:href="#ArialMT-114"/>
      <use x="350.048828" xlink:href="#ArialMT-97"/>
      <use x="405.664062" xlink:href="#ArialMT-116"/>
      <use x="433.447266" xlink:href="#ArialMT-115"/>
      <use x="483.447266" xlink:href="#ArialMT-95"/>
      <use x="539.0625" xlink:href="#ArialMT-67"/>
      <use x="611.279297" xlink:href="#ArialMT-111"/>
      <use x="666.894531" xlink:href="#ArialMT-110"/>
      <use x="722.509766" xlink:href="#ArialMT-115"/>
      <use x="772.509766" xlink:href="#ArialMT-112"/>
      <use x="828.125" xlink:href="#ArialMT-105"/>
      <use x="850.341797" xlink:href="#ArialMT-114"/>
      <use x="883.642578" xlink:href="#ArialMT-97"/>
      <use x="939.257812" xlink:href="#ArialMT-99"/>
      <use x="989.257812" xlink:href="#ArialMT-121"/>
     </g>
    </g>
   </g>
  </g>
 </g>
 <defs>
  <clipPath id="pc434d60c96">
   <rect height="543.6" width="1116" x="180" y="86.4"/>
  </clipPath>
 </defs>
</svg>
